# xmcd CD database file
# Copyright (C) 1993-1996 Ti Kan
#
# Track frame offsets:
# 150
# 12927
# 26262
# 40045
# 52945
# 64902
# 78870
# 90552
# 103487
# 114612
# 126987
# 140402
# 152807
# 166225
# 179542
# 192200
#
# Disc length: 2725 seconds
#
# Revision: 0
# Processed by: cddbd v1.4b41PL1 Copyright (c) Steve Scherf et al.
# Submitted via: inCDius 1.1b5
#
DISCID=cf0aa310
DTITLE=Jimmie Davis - Jimmie Davis The Country Music Hall Of Fame
DYEAR=1900
DGENRE=
TTITLE0=Nobody"s Darling But Mine
TTITLE1=JellyRoll Blues
TTITLE2=It Makes No Difference Now
TTITLE3=You Are My Sunshine
TTITLE4=I Just Dropped In To Say Goodbye
TTITLE5=I Hung My Head And Cried
TTITLE6=In The Pines
TTITLE7=Mama's Getting Hot And Papa's Getting Cold
TTITLE8=There's A New Moon Over My Shoulder
TTITLE9=Come On Over To My House (Ain't Nobody Home But Me)
TTITLE10=I Wish I Had Never Seen Sunshine
TTITLE11=Sweethearts Or Strangers
TTITLE12=Grievin' My Heart Out For You
TTITLE13=Bed Bug Blues
TTITLE14=When You Know You're Not Forgotten By The Girl You Can't Forget
TTITLE15=Supper Time
EXTD=
EXTT0=
EXTT1=
EXTT2=
EXTT3=
EXTT4=
EXTT5=
EXTT6=
EXTT7=
EXTT8=
EXTT9=
EXTT10=
EXTT11=
EXTT12=
EXTT13=
EXTT14=
EXTT15=
PLAYORDER=
